# xmcd CD database file
#
# Track frame offsets:
#	150
#	27292
#	54226
#	82783
#	110260
#
# Disc length: 1824 seconds
#
# Revision: 8
# Processed by: cddbd v1.5.2PL0 Copyright (c) Steve Scherf et al.
# Submitted via: CDex 1.70beta2
#
DISCID=2b071e05
DTITLE=小柳  ゆき - あなたのキスを数えましょう Opus II
DYEAR=2000
DGENRE=JPop
TTITLE0=あなたのキスを数えましょう　Opus II
TTITLE1=あなたのキスを数えましょう　Opus II （ English Version )
TTITLE2=あなたのキスを数えましょう　( Acoustic Version )
TTITLE3=あなたのキスを数えましょう　Opus II ( less yuki mix )
TTITLE4=あなたのキスを数えましょう　Opus II ( less Kashif mix )
EXTD=YEAR: 2000
EXTT0=
EXTT1=
EXTT2=
EXTT3=
EXTT4=
PLAYORDER=
